HIERARCHY
ROOT Spine
{
    OFFSET 0.0 0.0 -0.0
    CHANNELS 6 Xposition Yposition Zposition Zrotation Xrotation Yrotation
    JOINT ShoulderCenter
    {
        OFFSET 0.0 31.102407455444336 0.0
        CHANNELS 3 Zrotation Xrotation Yrotation
        JOINT LeftShoulder
        {
            OFFSET 19.383438110351562 0.0 0.0
            CHANNELS 3 Zrotation Xrotation Yrotation
            JOINT LeftElbow
            {
                OFFSET 26.1624698638916 0.0 0.0
                CHANNELS 3 Zrotation Xrotation Yrotation
                JOINT LeftHand
                {
                    OFFSET 33.42194366455078 0.0 0.0
                    CHANNELS 3 Zrotation Xrotation Yrotation
                    End Site
                    {
                        OFFSET 13.368778228759766 0.0 0.0
                    }
                }
            }
        }
        JOINT RightShoulder
        {
            OFFSET -19.383438110351562 0.0 0.0
            CHANNELS 3 Zrotation Xrotation Yrotation
            JOINT RightElbow
            {
                OFFSET -26.1624698638916 0.0 0.0
                CHANNELS 3 Zrotation Xrotation Yrotation
                JOINT RightHand
                {
                    OFFSET -33.42194366455078 0.0 0.0
                    CHANNELS 3 Zrotation Xrotation Yrotation
                    End Site
                    {
                        OFFSET -13.368778228759766 0.0 0.0
                    }
                }
            }
        }
        End Site
        {
            OFFSET 0.0 12.440961837768555 0.0
        }
    }
    JOINT LeftHip
    {
        OFFSET 16.331918633662113 -16.331918633662113 0.0
        CHANNELS 3 Zrotation Xrotation Yrotation
        JOINT LeftKnee
        {
            OFFSET 0.0 -41.68223190307617 0.0
            CHANNELS 3 Zrotation Xrotation Yrotation
            JOINT LeftFoot
            {
                OFFSET 0.0 -46.689056396484375 0.0
                CHANNELS 3 Zrotation Xrotation Yrotation
                End Site
                {
                    OFFSET 0.0 0.0 18.67562484741211
                }
            }
        }
    }
    JOINT RightHip
    {
        OFFSET -16.331918633662113 -16.331918633662113 0.0
        CHANNELS 3 Zrotation Xrotation Yrotation
        JOINT RightKnee
        {
            OFFSET 0.0 -41.68223190307617 0.0
            CHANNELS 3 Zrotation Xrotation Yrotation
            JOINT RightFoot
            {
                OFFSET 0.0 -46.689056396484375 0.0
                CHANNELS 3 Zrotation Xrotation Yrotation
                End Site
                {
                    OFFSET 0.0 0.0 18.67562484741211
                }
            }
        }
    }
}
MOTION
Frames: 11
Frame Time: 0.03333333333333333
-3.0999999046325684 15.80000114440918 35.10000228881836 -3.507289478520844 -4.051770631878675 2.278851717691781 2.9524444664265805e-07 4.760493630056488e-07 11.60001874050667 134.09030516218152 47.235487065556846 -112.42927269919167 1.5537720789383945e-06 2.737701613654648e-06 146.19203736739385 0.0 0.0 -1.987846675914698e-16 -127.7900001757092 11.602128411741807 133.96591338308022 -3.954128138916328e-06 -1.6260198229670716e-06 -109.96515409421922 0.0 7.951386703658792e-16 0.0 8.533072884769647 0.6173153412348177 -24.982375844675335 -0.36983160936252923 10.390797189699045 -30.29163992987108 4.06906986851499e-32 1.5902773407317588e-15 -2.93207384697418e-15 -19.83654254452624 4.175026928542382 83.66005354030816 -13.498442138106837 -1.7807190042268095 -147.12905494823275 -1.5902773407317582e-15 2.758691436281349e-32 -1.9878466759146976e-15
-3.200000047683716 15.80000114440918 35.20000076293945 -3.5186118173375576 -4.616823728680732 1.9468608445665143 1.2129653837355976e-07 -3.4215279793942334e-07 11.870246315127728 134.20228626112228 46.768394837160216 -112.57197385706246 -5.921316283409233e-07 -2.9980904293740278e-06 146.18782315956489 -3.1805546814635168e-15 6.3611093629270335e-15 -1.9878466759146963e-16 -127.42558861832879 11.77301016463022 133.11046038780324 -2.2345868783256866e-07 -4.262040357086333e-06 -108.52822460048783 5.517382872562698e-33 3.9756933518293955e-16 -1.5902773407317582e-15 8.567578886421446 1.362869351311481 -24.837752219318634 -0.27349777375388085 10.16452709470975 -29.497178186041047 0.0 0.0 6.8083748650078394e-15 -19.84299017400732 4.593409793641262 85.29075190634431 -13.420073535368305 -1.6172214178506255 -151.05214512557544 0.0 0.0 -5.168401357378215e-15
-3.200000047683716 15.80000114440918 35.20000076293945 -3.703298888808011 -4.799675968931343 1.9302154298981338 -3.239997074703189e-07 1.090715282903678e-07 11.728237582987601 134.15032982100288 47.00323892320466 -112.3139993047515 -3.300895401454397e-06 -2.532719685620884e-06 146.0781088611777 -9.931289170612858e-32 -6.3611093629270335e-15 -1.7890620083232284e-15 -126.7212586200305 11.917124042492407 132.37073841943484 -1.308455207040018e-07 -1.3103846237628383e-06 -106.7543239537518 -6.3611093629270335e-15 0.0 0.0 8.746617609287018 1.5451491291134607 -25.641927795538475 -0.43848596609731527 10.29736468543686 -29.414764510921522 0.0 0.0 2.8326815131784455e-15 -19.65784028470295 4.7590423519953635 85.45655196005748 -13.42292244156101 -1.5929567660266193 -149.27419592249237 1.5902773407317588e-15 -7.951386703658794e-16 1.1927080055488192e-15
-3.299999952316284 15.80000114440918 35.29999923706055 -3.900494151366723 -5.182461670112011 1.9085967953273806 1.1096565871110643e-07 9.811413359654378e-08 11.711741310543411 134.56904008604386 46.177383603273974 -112.78076824525704 1.908832422125523e-06 2.8951493339084692e-06 145.87292692877125 0.0 0.0 3.975693351829396e-16 -125.93598179215319 11.946614742443284 132.28015464435344 7.182058963474742e-07 -1.063405966159722e-06 -106.13624766059898 -1.1034765745125397e-32 7.951386703658792e-16 1.5902773407317584e-15 8.963876645334365 2.0553938622829664 -25.7774872110981 -0.3989893539820308 10.169605524691454 -28.78608794348482 1.0000256456519891e-32 3.975693351829397e-16 -2.882377680076313e-15 -19.405484251997834 5.112670817232295 86.53213653797664 -13.455575633740564 -1.4277771456787982 -152.16607702839966 1.9310840053969444e-32 -7.951386703658791e-16 2.7829853462805768e-15
-3.299999952316284 15.80000114440918 35.29999923706055 -3.900494162728217 -5.55039693483663 2.215468920596245 2.2527042393159304e-07 3.771620652314163e-07 11.39234883963732 134.7455802905143 45.622995947573735 -113.09372329078505 -7.458798904665319e-07 -4.059782322378869e-06 145.83258360392728 0.0 0.0 -3.975693351829396e-16 -125.72185377556757 11.635713723796048 132.30180025079565 2.042666234867932e-06 -1.6748543916586489e-06 -105.70580431947542 0.0 -3.9756933518293955e-16 0.0 8.845883290077259 2.2394147794286616 -25.555443741870512 -0.16334811984968617 10.498062794847655 -29.793417758485408 0.0 0.0 -8.498044539535333e-15 -19.25087157617282 5.560471890670474 84.58215428314038 -13.527739980023876 -1.6190977005614586 -147.31835021548437 -1.5902773407317584e-15 1.6552148617688095e-32 -1.1927080055488188e-15
-3.4000000953674316 15.80000114440918 35.400001525878906 -4.098879963332176 -6.1196971802339775 2.2197138310821356 -3.2943388006339516e-08 -5.054729247247797e-07 11.490846718504745 135.11801643100816 45.06761485803965 -113.7035364522461 -7.244550999468554e-07 7.439989134029967e-06 145.8827735940542 -3.310429723537619e-32 -6.3611093629270335e-15 -5.963540027744094e-16 -125.2481004324348 10.690886617269886 133.48434617873235 -3.5621564149063897e-06 -4.062364841936526e-06 -106.64272359021487 1.1034765745125397e-32 -7.951386703658792e-16 1.5902773407317584e-15 9.088995013996318 2.920713458274375 -25.741165225637754 -0.1371448175887323 10.371878115590569 -29.31338889589091 0.0 0.0 -5.715059193254757e-15 -19.17392990726248 6.099227793028109 86.60510266595364 -13.594027234672486 -1.2637159535874043 -154.04377875861542 1.5902773407317582e-15 2.3854160110976376e-15 6.7586786981099735e-15
-3.4000000953674316 15.80000114440918 35.400001525878906 -4.284514240236469 -6.118255266557979 2.5414602369879433 -3.911694193631817e-08 -2.4190067664286305e-07 11.309852274268671 135.15146579590876 45.26467256598988 -113.62342785452152 -4.5414038783831834e-06 -5.360411587938181e-06 145.92504806050005 0.0 0.0 -3.975693351829396e-16 -124.5946069630891 9.867284764392426 134.22723914679275 -2.8793997094789196e-06 -3.4175727436643635e-06 -107.80893024274876 0.0 0.0 1.5902773407317584e-15 9.4284545745081 2.8493377669922526 -26.574979804208358 -0.34161851189966497 10.337355944337215 -29.425310241843277 0.0 0.0 -3.130858514565649e-15 -18.955433055609035 6.065958440898968 86.31284542398431 -13.435473625076717 -1.3998163453636923 -148.97235672254973 3.1805546814635164e-15 7.951386703658792e-16 1.5902773407317582e-15
-3.4000000953674316 15.80000114440918 35.5 -4.298463225988075 -6.137986843264031 2.2134527094548773 -6.123507455508166e-07 7.209952884044754e-07 11.80414946793723 135.39113361609455 45.310774687392346 -113.8302494964344 1.6229400068601462e-07 -5.122256775475522e-07 145.781430810261 3.1805546814635164e-15 -6.361109362927033e-15 3.975693351829398e-16 -124.37442181122283 9.569122512597009 134.49001489598686 -5.985188112452236e-07 -1.3972849127824675e-06 -108.16641441437645 0.0 7.951386703658792e-16 0.0 9.434748179156886 3.060052804504694 -26.997557896122874 -0.313377672936378 10.233056156155984 -29.448178740031214 7.951386703658792e-16 8.965747167914385e-33 1.2921003393445538e-15 -18.97399085817366 5.977943819145807 85.33227421699375 -13.398469555655224 -1.592760431770633 -147.91450604910008 -1.5902773407317582e-15 -4.4139062980501586e-32 3.1805546814635164e-15
-3.4000000953674316 15.80000114440918 35.5 -4.284514114777599 -5.934193256393908 2.203028189581027 -5.745897827127294e-07 3.9507766791773666e-07 11.817841968962398 135.58797387833445 45.8001404097633 -114.10720855676414 1.0117518384000128e-06 1.2203004562574975e-06 145.9936436173215 0.0 -6.3611093629270335e-15 0.0 -124.5494309587404 9.682482026718734 133.80985781152248 -3.304696487244969e-06 2.865010926781832e-07 -108.1540487601248 0.0 0.0 0.0 9.272482949146422 2.8686264173248013 -26.764464746287757 -0.022371595646553336 10.361189574969117 -30.00055219085943 1.5902773407317588e-15 1.9878466759146984e-15 3.975693351829397e-16 -18.990056591830573 5.782013013605633 84.0600712818961 -13.392355548176422 -1.7235740093103 -145.77392718374344 -1.590277340731758e-15 3.1805546814635164e-15 -5.168401357378214e-15
-3.5 15.80000114440918 35.400001525878906 -4.284513752293079 -5.565717022946268 1.8972199888721581 4.484910646751117e-09 1.6606357878432586e-07 11.979578730478671 135.53346489413784 46.768033169182736 -113.57611670922006 -1.25428614861861e-06 -3.2701341128146597e-06 145.66872510202887 -3.1805546814635176e-15 4.4139062980501586e-32 -1.5902773407317588e-15 -124.59767940070243 9.811625889692289 132.38794154633774 -3.207248253944927e-06 2.7182650613761407e-06 -108.16958458196056 6.361109362927033e-15 -7.951386703658791e-16 4.4139062980501586e-32 9.38714125980925 2.686684497041296 -28.49481703789112 -0.5850533740151258 10.11447449162238 -28.410141018219253 -7.951386703658792e-16 1.5517639329082588e-32 -2.236327510404035e-15 -19.14524938782528 5.4707996306673 86.24381340976218 -13.571820280458374 -1.388965762798573 -149.3194158637615 -2.2069531490250793e-32 3.1805546814635168e-15 7.951386703658792e-16
-3.5 15.80000114440918 35.400001525878906 -4.284513585159801 -5.012137103268218 1.5671835024015788 -3.258363029669153e-07 -8.919282158968781e-07 12.673263072890574 134.9783154040955 46.619170978629846 -112.77169546589654 3.878829542844813e-06 1.2976563552117852e-06 145.60686362846818 -2.2069531490250793e-32 -6.361109362927033e-15 -3.9756933518293955e-16 -124.95422751619034 10.74933611573162 131.73015983009083 1.671096169807152e-06 2.8619677356804875e-06 -108.7388557791643 0.0 0.0 0.0 9.346985957666792 2.055993523443117 -27.678717489829882 -0.6293730090537988 10.359302895156546 -29.003383195989425 4.827710013492361e-33 3.9756933518293955e-16 -1.3914926731402884e-15 -19.102380977651123 4.702206836319657 84.64724476837415 -13.2803586041152 -1.5924957102125645 -146.739178982232 1.5902773407317588e-15 -2.758691436281349e-32 -1.9878466759146984e-15
